<svg xmlns="http://www.w3.org/2000/svg" viewBox="0 0 197.8 45"><g id="Calque_2" data-name="Calque 2"><g id="Calque_2-2" data-name="Calque 2"><g id="Calque_1-2" data-name="Calque 1"><path id="Tracé_3239" data-name="Tracé 3239" d="M13.62,16.16v16H11.75l-.52-1.62a6.25,6.25,0,0,1-5,2c-3.91,0-6.22-2-6.22-6.73V22.49c0-4.78,2.31-6.74,6.24-6.74a6.28,6.28,0,0,1,5,2l.52-1.61Zm-2.69,10v-4c-.22-2.64-1.74-3.84-4.22-3.84-2.7,0-4,1.3-4,4.34v3c0,3,1.33,4.37,4,4.37C9.16,30,10.71,28.79,10.93,26.14Z" style="fill:#fff"/><path id="Tracé_3240" data-name="Tracé 3240" d="M31.84,22.49v3.33c0,4.78-2.31,6.74-6.24,6.74a6.22,6.22,0,0,1-5-2l-.53,1.59H18.25V7.76h2.69v9.66a6.26,6.26,0,0,1,4.66-1.67C29.53,15.75,31.84,17.71,31.84,22.49Zm-2.64.16c0-3-1.36-4.34-4.05-4.34-2.38,0-3.87,1.11-4.19,3.55v4.59C21.28,28.89,22.8,30,25.15,30c2.69,0,4.05-1.3,4.05-4.37Z" style="fill:#fff"/><path id="Tracé_3241" data-name="Tracé 3241" d="M48.89,16.16v16H47l-.53-1.62a6.29,6.29,0,0,1-5,2c-3.93,0-6.24-2-6.24-6.75V22.49c0-4.78,2.31-6.74,6.24-6.74a6.28,6.28,0,0,1,5,2L47,16.16Zm-2.7,10v-4C46,19.51,44.45,18.31,42,18.31c-2.69,0-4,1.3-4,4.34v3c0,3,1.33,4.37,4,4.37C44.42,30,46,28.79,46.19,26.14Z" style="fill:#fff"/><path id="Tracé_3242" data-name="Tracé 3242" d="M52.91,25.92V22.37c0-4.12,2.34-6.62,6.72-6.62,4.12,0,6.59,2.4,6.59,6.27v.32h-2.7V22c0-2.41-1.39-3.65-3.9-3.65-2.75,0-4,1.4-4,4.23v3.22c0,2.82,1.24,4.23,4,4.23,2.48,0,3.9-1.24,3.9-3.65V26h2.7v.31c0,3.87-2.44,6.28-6.59,6.28C55.29,32.53,52.91,30,52.91,25.92Z" style="fill:#fff"/><path id="Tracé_3243" data-name="Tracé 3243" d="M71.86,6.5V37.22H70.53V6.5Z" style="fill:#fff"/><path id="Tracé_3244" data-name="Tracé 3244" d="M90.61,16.25l-3.07,15.9h-1l.29-2.44a6.47,6.47,0,0,1-5.32,2.79c-3.36,0-5.86-2.51-5-7l1.81-9.25h1.33l-1.78,9.19c-.7,3.76,1.27,5.81,3.9,5.81,2.32,0,4.63-1.59,5.58-4.69l2-10.29Z" style="fill:#fff"/><path id="Tracé_3245" data-name="Tracé 3245" d="M92.54,27h1.31c-.64,2.79,1.45,4.31,4.75,4.31,2.78,0,4.59-1.46,4.59-3.52,0-4.68-9.06-2.05-9.06-7.22,0-2.85,2.53-4.63,6-4.63,4,0,6.34,2,5.61,5.49h-1.33c.66-2.95-1.33-4.28-4.34-4.28-2.73,0-4.63,1.23-4.63,3.26,0,4.18,9.06,1.62,9.06,7.23,0,2.82-2.34,4.87-6.08,4.87C94.41,32.47,91.75,30.44,92.54,27Z" style="fill:#fff"/><path id="Tracé_3246" data-name="Tracé 3246" d="M110.76,6.5V37.22h-1.33V6.5Z" style="fill:#fff"/><line id="Ligne_74" data-name="Ligne 74" x1="136.45" x2="136.45" y2="45" style="fill:none;stroke:#fff;stroke-miterlimit:10;stroke-width:5px"/><line id="Ligne_75" data-name="Ligne 75" x1="195.3" x2="195.3" y2="45" style="fill:none;stroke:#fff;stroke-miterlimit:10;stroke-width:5px"/><g id="Groupe_84" data-name="Groupe 84"><circle id="Ellipse_19" data-name="Ellipse 19" cx="156.46" cy="13.71" r="3.34" style="fill:#fff"/><circle id="Ellipse_20" data-name="Ellipse 20" cx="165.88" cy="13.71" r="3.34" style="fill:#fff"/><circle id="Ellipse_21" data-name="Ellipse 21" cx="165.88" cy="23.22" r="3.34" style="fill:#fff"/><circle id="Ellipse_22" data-name="Ellipse 22" cx="165.88" cy="32.73" r="3.34" style="fill:#fff"/><circle id="Ellipse_23" data-name="Ellipse 23" cx="175.29" cy="13.71" r="3.34" style="fill:#fff"/></g></g></g></g></svg>