<svg xmlns="http://www.w3.org/2000/svg" viewBox="0 0 451.78 575.15"><g id="Calque_2" data-name="Calque 2"><g id="Calque_1-2" data-name="Calque 1"><g id="Groupe_58" data-name="Groupe 58"><g id="Logo"><g id="Calque_1-3" data-name="Calque 1"><path id="Tracé_3231" data-name="Tracé 3231" d="M57.46,490.17v64.56H49.91l-2-6.51c-4.6,5.49-11.62,8.18-20.18,8.18-15.85,0-25.18-8.06-25.18-27.23V515.73c0-19.3,9.33-27.23,25.18-27.23,8.56,0,15.58,2.69,20.18,8.18l2-6.51ZM46.59,530.42v-16.1c-.9-10.61-7-15.47-17-15.47-10.86,0-16.23,5.24-16.23,17.51v12c0,12.24,5.37,17.64,16.23,17.64C39.43,546,45.69,541.15,46.59,530.42Z" style="fill:#fff"/><path id="Tracé_3232" data-name="Tracé 3232" d="M130.93,515.73v13.41c0,19.3-9.32,27.23-25.17,27.23-8.56,0-15.59-2.7-20-8.06l-2,6.39H76.11V456.3H87v39c4.45-4.6,11-6.78,18.78-6.78C121.61,488.5,130.93,496.46,130.93,515.73Zm-10.73.63c0-12.24-5.5-17.51-16.36-17.51-9.58,0-15.58,4.45-16.86,14.32V531.7c1.28,9.84,7.41,14.31,16.86,14.31,10.86,0,16.36-5.24,16.36-17.64Z" style="fill:#fff"/><path id="Tracé_3233" data-name="Tracé 3233" d="M199.69,490.17v64.56h-7.54l-2.09-6.54c-4.6,5.48-11.63,8.18-20.19,8.18-15.85,0-25.18-8.06-25.18-27.23V515.73c0-19.3,9.33-27.23,25.18-27.23,8.56,0,15.59,2.69,20.19,8.18l2-6.51Zm-10.86,40.25v-16.1c-.89-10.61-7-15.47-17-15.47-10.87,0-16.23,5.24-16.23,17.51v12c0,12.24,5.36,17.64,16.23,17.64C181.67,546,187.94,541.15,188.83,530.42Z" style="fill:#fff"/><path id="Tracé_3234" data-name="Tracé 3234" d="M215.92,529.53V515.21c0-16.6,9.45-26.71,27.09-26.71,16.61,0,26.59,9.72,26.59,25.31v1.27H258.73v-1.52c0-9.72-5.62-14.7-15.71-14.7-11.14,0-16.23,5.63-16.23,17v13c0,11.38,5,17,16.23,17,10,0,15.71-5,15.71-14.69v-1.55H269.6V531c0,15.59-9.84,25.3-26.59,25.3C225.5,556.23,215.92,546.14,215.92,529.53Z" style="fill:#fff"/><path id="Tracé_3235" data-name="Tracé 3235" d="M292.34,451.19v124H287v-124Z" style="fill:#fff"/><path id="Tracé_3236" data-name="Tracé 3236" d="M368,490.55,355.6,554.7h-4.13l1.11-9.84a26,26,0,0,1-21.46,11.25c-13.55,0-23.65-10.1-20.19-28.25l7.28-37.31h5.43l-7.15,37.08c-2.8,15.2,5.11,23.37,15.72,23.37,9.33,0,18.67-6.39,22.5-18.92l7.89-41.53Z" style="fill:#fff"/><path id="Tracé_3237" data-name="Tracé 3237" d="M375.79,533.75H381c-2.56,11.24,5.88,17.37,19.17,17.37,11.24,0,18.54-5.87,18.54-14.18,0-18.92-36.56-8.31-36.56-29.14,0-11.5,10.23-18.66,24.29-18.66,16,0,25.6,8.05,22.62,22.11h-5.38c2.7-11.89-5.36-17.25-17.5-17.25-11,0-18.67,5-18.67,13.17,0,16.86,36.56,6.51,36.56,29.13,0,11.37-9.46,19.68-24.49,19.68C383.34,556,372.62,547.8,375.79,533.75Z" style="fill:#fff"/><path id="Tracé_3238" data-name="Tracé 3238" d="M449.28,451.19v124h-5.42v-124Z" style="fill:#fff"/><line id="Ligne_72" data-name="Ligne 72" x1="2.5" x2="2.5" y2="341.6" style="fill:none;stroke:#fff;stroke-miterlimit:10;stroke-width:5px"/><line id="Ligne_73" data-name="Ligne 73" x1="449.28" x2="449.28" y2="341.6" style="fill:none;stroke:#fff;stroke-miterlimit:10;stroke-width:5px"/><circle id="Ellipse_14" data-name="Ellipse 14" cx="150.3" cy="99.9" r="26.84" style="fill:#fff"/><circle id="Ellipse_15" data-name="Ellipse 15" cx="225.89" cy="99.9" r="26.84" style="fill:#fff"/><circle id="Ellipse_16" data-name="Ellipse 16" cx="225.89" cy="176.27" r="26.84" style="fill:#fff"/><circle id="Ellipse_17" data-name="Ellipse 17" cx="225.89" cy="252.64" r="26.84" style="fill:#fff"/><circle id="Ellipse_18" data-name="Ellipse 18" cx="301.48" cy="99.9" r="26.84" style="fill:#fff"/></g></g></g></g></g></svg>